<?xml version="1.0" encoding="utf-8"?>
<!-- Generator: Adobe Illustrator 22.0.1, SVG Export Plug-In . SVG Version: 6.00 Build 0)  -->
<svg version="1.1" id="Layer_1" xmlns="http://www.w3.org/2000/svg" xmlns:xlink="http://www.w3.org/1999/xlink" x="0px" y="0px"
	 viewBox="0 0 100 100" style="enable-background:new 0 0 100 100;" xml:space="preserve">
<style type="text/css">
	.st0{fill:#4DD5F3;}
</style>
<path class="st0" d="M32,6C17.7,6,6,17.7,6,32v36c0,14.3,11.7,26,26,26h36c14.3,0,26-11.7,26-26V32C94,17.7,82.3,6,68,6H32z M74,22
	c2.2,0,4,1.8,4,4s-1.8,4-4,4s-4-1.8-4-4S71.8,22,74,22z M50,28c12.1,0,22,9.9,22,22s-9.9,22-22,22s-22-9.9-22-22S37.9,28,50,28z
	 M50,32c-9.9,0-18,8.1-18,18s8.1,18,18,18s18-8.1,18-18S59.9,32,50,32z"/>
</svg>
