<?xml version="1.0" encoding="utf-8"?>
<!-- Generator: Adobe Illustrator 22.0.1, SVG Export Plug-In . SVG Version: 6.00 Build 0)  -->
<svg version="1.1" id="Layer_1" xmlns="http://www.w3.org/2000/svg" xmlns:xlink="http://www.w3.org/1999/xlink" x="0px" y="0px"
	 viewBox="0 0 100 100" style="enable-background:new 0 0 100 100;" xml:space="preserve">
<style type="text/css">
	.st0{fill:#4DD5F3;}
</style>
<g id="surface1">
	<path class="st0" d="M81.2,0H18.8C8.4,0,0,8.4,0,18.8v62.5C0,91.6,8.4,100,18.8,100h62.5c10.4,0,18.8-8.4,18.8-18.8V18.8
		C100,8.4,91.6,0,81.2,0z M30.9,84.9H15.4l-0.1-46.5h15.5L30.9,84.9z M22.8,32.3L22.8,32.3c-5.2,0-8.4-3.5-8.4-7.9
		c0-4.5,3.4-7.8,8.5-7.8s8.3,3.4,8.4,7.8C31.3,28.8,28,32.3,22.8,32.3z M84.8,84.9H69.1V59.6c0-6.1-1.6-10.3-7.1-10.3
		c-4.2,0-6.4,2.8-7.5,5.5c-0.4,1-0.5,2.3-0.5,3.7v26.3H38.3l-0.1-46.5h15.7l0.1,6.6c2-3.1,5.4-7.5,13.4-7.5
		c9.9,0,17.4,6.5,17.4,20.4L84.8,84.9L84.8,84.9z"/>
</g>
</svg>
