<?xml version="1.0" encoding="utf-8"?>
<!-- Generator: Adobe Illustrator 22.0.1, SVG Export Plug-In . SVG Version: 6.00 Build 0)  -->
<svg version="1.1" id="Layer_1" xmlns="http://www.w3.org/2000/svg" xmlns:xlink="http://www.w3.org/1999/xlink" x="0px" y="0px"
	 viewBox="0 0 100 100" style="enable-background:new 0 0 100 100;" xml:space="preserve">
<style type="text/css">
	.st0{fill:#4DD5F3;}
</style>
<g id="surface1">
	<path class="st0" d="M36,83.2c0,1.8-1,2.8-2.3,2.8c-0.5,0-1-0.1-1.6-0.4l-21.8-11C9,73.9,8,72.2,8,70.7V16.6c0-1.4,0.8-2.3,1.8-2.3
		c0.4,0,0.8,0.1,1.3,0.3l0.8,0.4h0l24,12.2c0,0,0.1,0.1,0.1,0.1V83.2z M61.2,17.8l1.5-2.4c0.5-0.9,1.5-1.4,2.5-1.4
		c0.2,0,0.5,0,0.7,0.1c0.2,0,0.4,0.1,0.5,0.2l25.3,12.8c0,0,0,0,0,0l0,0c0,0,0,0,0,0c0.1,0.1,0.2,0.3,0.1,0.4L66.6,69.1L64,73.4
		L47.3,40.6L61.2,17.8z M40,61.2V35.1l18,35.2l-16.2-8.2L40,61.2z M92,83.2c0,1.7-1,2.6-2.5,2.6c-0.7,0-1.4-0.2-2.2-0.6l-3.6-1.8
		l-16.2-8.2L92,35V83.2z"/>
</g>
</svg>
