<?xml version="1.0" encoding="utf-8"?>
<!-- Generator: Adobe Illustrator 22.0.1, SVG Export Plug-In . SVG Version: 6.00 Build 0)  -->
<svg version="1.1" id="Layer_1" xmlns="http://www.w3.org/2000/svg" xmlns:xlink="http://www.w3.org/1999/xlink" x="0px" y="0px"
	 viewBox="0 0 100 100" style="enable-background:new 0 0 100 100;" xml:space="preserve">
<style type="text/css">
	.st0{fill:#4DD5F3;}
</style>
<g id="surface1_1_">
	<path class="st0" d="M58,8c-4.2,0-9.1,3.3-9.9,18.1c0.6,0,1.2-0.1,1.9-0.1c0.7,0,1.4,0,2.1,0.1C52.6,17.2,54.7,12,58,12
		c1.4,0,2.2,0.8,3.7,2.4c1.7,1.9,4,4.3,8.4,5.2C70.1,19.1,70,18.5,70,18c0-0.8,0.1-1.6,0.2-2.4c-2.8-0.8-4.2-2.3-5.6-3.9
		C63,10,61.2,8,58,8z M82,10c-4.4,0-8,3.6-8,8s3.6,8,8,8s8-3.6,8-8S86.4,10,82,10z M50,30C25.7,30,6,42.4,6,60s19.7,32,44,32
		s44-14.4,44-32S74.3,30,50,30z M15,31.9c-2.9,0-5.7,1.2-7.8,3.3C3.7,38.6,3,43.6,5,47.7c3-5.9,8.2-10.8,14.9-14.6
		C18.4,32.4,16.7,31.9,15,31.9z M85,31.9c-1.7,0-3.4,0.5-4.9,1.2C86.8,36.8,92,41.8,95,47.7c2-4.1,1.3-9.1-2.2-12.5
		C90.7,33.1,87.9,31.9,85,31.9z M34,48c3.3,0,6,2.7,6,6s-2.7,6-6,6s-6-2.7-6-6S30.7,48,34,48z M66,48c3.3,0,6,2.7,6,6s-2.7,6-6,6
		s-6-2.7-6-6S62.7,48,66,48z M32.1,70c0.5,0.1,1,0.4,1.3,0.8c0.2,0.3,4.9,6.6,16.6,6.6c11.8,0,16.5-6.4,16.6-6.5
		c0.6-0.9,1.9-1.1,2.8-0.5c0.9,0.6,1.1,1.8,0.4,2.8c-0.2,0.3-5.9,8.2-19.8,8.2c-13.9,0-19.6-7.9-19.8-8.2c-0.6-0.9-0.5-2.1,0.4-2.8
		C31.1,70.1,31.6,69.9,32.1,70z"/>
</g>
</svg>
