<?xml version="1.0" encoding="utf-8"?>
<!-- Generator: Adobe Illustrator 22.0.1, SVG Export Plug-In . SVG Version: 6.00 Build 0)  -->
<svg version="1.1" id="Layer_1" xmlns="http://www.w3.org/2000/svg" xmlns:xlink="http://www.w3.org/1999/xlink" x="0px" y="0px"
	 viewBox="0 0 100 100" style="enable-background:new 0 0 100 100;" xml:space="preserve">
<style type="text/css">
	.st0{fill:#4DD5F3;}
</style>
<g id="surface1">
	<path class="st0" d="M55.2,9.4c-0.9-0.1-1.9,0.1-2.7,0.4c-3.5,1.2-5.4,5-4.2,8.5l2.8,8.3l-16,5.4l-2.6-8c-1.2-3.5-5-5.4-8.5-4.2
		c-3.5,1.2-5.5,5-4.3,8.5l2.6,7.9L14,39c-3.5,1.2-5.4,5.1-4.2,8.6s5,5.4,8.5,4.2l8.3-2.7l5.4,15.9l-8,2.6c-3.5,1.2-5.4,5-4.2,8.5
		c1.2,3.5,5,5.5,8.5,4.3l7.9-2.6L39,86c1.2,3.5,5.1,5.4,8.6,4.2s5.4-5,4.2-8.5L49,73.4l15.9-5.4l2.6,8c1.2,3.5,5,5.4,8.5,4.2
		c3.5-1.2,5.5-5,4.3-8.5l-2.6-7.9L86,61c3.5-1.2,5.4-5.1,4.2-8.6s-5-5.4-8.5-4.2L73.4,51l-5.4-15.9l8-2.6c3.5-1.2,5.4-5,4.2-8.5
		s-5-5.5-8.5-4.3l-7.9,2.6L61,14C60.1,11.3,57.8,9.6,55.2,9.4z M55.3,39.4l5.4,15.9l-15.9,5.4l-5.4-15.9L55.3,39.4z"/>
</g>
</svg>
