<?xml version="1.0"?>
<svg xmlns="http://www.w3.org/2000/svg" xmlns:xlink="http://www.w3.org/1999/xlink" version="1.1" viewBox="0 0 252 252" width="100px" height="100px"><g fill="none" fill-rule="nonzero" stroke="none" stroke-width="1" stroke-linecap="butt" stroke-linejoin="miter" stroke-miterlimit="10" stroke-dasharray="" stroke-dashoffset="0" font-family="none" font-weight="none" font-size="none" text-anchor="none" style="mix-blend-mode: normal"><path d="M0,252v-252h252v252z" fill="none"/><g fill="#ffffff"><g id="surface1"><path d="M205.30371,31.46924c-2.64551,0.12305 -5.13721,0.89209 -7.35205,1.75342h-0.03076c-2.24561,0.89209 -12.91992,5.3833 -29.13135,12.18164c-16.21143,6.82911 -37.25244,15.68848 -58.13965,24.48633c-41.71289,17.56494 -82.71826,34.85303 -82.71826,34.85303l0.49219,-0.18457c0,0 -2.83008,0.92285 -5.7832,2.95313c-1.50732,0.98438 -3.16846,2.33789 -4.61425,4.46045c-1.4458,2.12256 -2.61475,5.3833 -2.18408,8.73633c0.70752,5.69092 4.39893,9.10547 7.04443,10.98193c2.67627,1.90723 5.2295,2.79932 5.2295,2.79932h0.06152l38.45215,12.95068c1.72266,5.53711 11.72021,38.39062 14.11962,45.95801c1.41504,4.52197 2.79932,7.35205 4.52197,9.50537c0.83057,1.10742 1.81494,2.03028 2.98388,2.76856c0.46143,0.27685 0.95362,0.49219 1.4458,0.67675c0.15381,0.09229 0.30762,0.12305 0.49219,0.15381l-0.3999,-0.09228c0.12305,0.03076 0.21533,0.12305 0.30761,0.15381c0.30762,0.09229 0.52296,0.12305 0.92286,0.18457c6.09082,1.8457 10.98193,-1.93798 10.98193,-1.93798l0.27685,-0.21533l22.70215,-20.67187l38.05224,29.19287l0.86133,0.36914c7.93653,3.47607 15.96533,1.53809 20.21045,-1.87646c4.27588,-3.44531 5.93702,-7.84424 5.93702,-7.84424l0.27685,-0.70752l29.4082,-150.64013c0.83057,-3.72217 1.04589,-7.19824 0.12305,-10.58203c-0.92286,-3.38379 -3.29151,-6.55224 -6.15234,-8.24414c-2.89161,-1.72266 -5.75244,-2.2456 -8.39795,-2.12256zM204.50391,47.61914c-0.03076,0.49219 0.06153,0.43067 -0.15381,1.38428v0.09229l-29.13135,149.07129c-0.12305,0.21533 -0.33838,0.67675 -0.92285,1.13818c-0.61523,0.49219 -1.10742,0.7998 -3.66065,-0.21533l-46.54248,-35.68359l-28.11621,25.62451l5.90625,-37.71386c0,0 72.90528,-67.95263 76.04297,-70.875c3.1377,-2.92237 2.0918,-3.5376 2.0918,-3.5376c0.21533,-3.56836 -4.7373,-1.04589 -4.7373,-1.04589l-95.88428,59.40087l-0.03076,-0.15381l-45.958,-15.47315v-0.03076c-0.03077,0 -0.09229,-0.03076 -0.12305,-0.03076c0.03076,0 0.24609,-0.09229 0.24609,-0.09229l0.24609,-0.12305l0.24609,-0.09229c0,0 41.03613,-17.28808 82.74902,-34.85303c20.88721,-8.79785 41.92822,-17.65722 58.10888,-24.48633c16.18067,-6.79834 28.14697,-11.78174 28.82374,-12.05859c0.64599,-0.24609 0.33837,-0.24609 0.7998,-0.24609z"/></g></g><path d="M126,252c-69.58788,0 -126,-56.41212 -126,-126v0c0,-69.58788 56.41212,-126 126,-126v0c69.58788,0 126,56.41212 126,126v0c0,69.58788 -56.41212,126 -126,126z" fill="none"/><path d="M126,246.96c-66.80436,0 -120.96,-54.15564 -120.96,-120.96v0c0,-66.80436 54.15564,-120.96 120.96,-120.96h0c66.80436,0 120.96,54.15564 120.96,120.96v0c0,66.80436 -54.15564,120.96 -120.96,120.96z" fill="none"/></g></svg>
