<?xml version="1.0" encoding="utf-8"?>
<!-- Generator: Adobe Illustrator 22.0.1, SVG Export Plug-In . SVG Version: 6.00 Build 0)  -->
<svg version="1.1" id="Layer_1" xmlns="http://www.w3.org/2000/svg" xmlns:xlink="http://www.w3.org/1999/xlink" x="0px" y="0px"
	 viewBox="0 0 100 100" style="enable-background:new 0 0 100 100;" xml:space="preserve">
<style type="text/css">
	.st0{fill:#4DD5F3;}
</style>
<g>
	<g id="surface1">
		<path class="st0" d="M81.5,12.5c-1,0-2,0.4-2.9,0.7h0c-0.9,0.4-5.1,2.1-11.6,4.8c-6.4,2.7-14.8,6.2-23.1,9.7
			c-16.6,7-32.8,13.8-32.8,13.8l0.2-0.1c0,0-1.1,0.4-2.3,1.2c-0.6,0.4-1.3,0.9-1.8,1.8c-0.6,0.8-1,2.1-0.9,3.5
			c0.3,2.3,1.7,3.6,2.8,4.4c1.1,0.8,2.1,1.1,2.1,1.1h0l15.3,5.1c0.7,2.2,4.7,15.2,5.6,18.2c0.6,1.8,1.1,2.9,1.8,3.8
			c0.3,0.4,0.7,0.8,1.2,1.1c0.2,0.1,0.4,0.2,0.6,0.3c0.1,0,0.1,0,0.2,0.1l-0.2,0c0,0,0.1,0,0.1,0.1c0.1,0,0.2,0,0.4,0.1
			c2.4,0.7,4.4-0.8,4.4-0.8l0.1-0.1l9-8.2l15.1,11.6l0.3,0.1c3.1,1.4,6.3,0.6,8-0.7c1.7-1.4,2.4-3.1,2.4-3.1l0.1-0.3l11.7-59.8
			c0.3-1.5,0.4-2.9,0-4.2c-0.4-1.3-1.3-2.6-2.4-3.3C83.7,12.6,82.5,12.4,81.5,12.5z M81.2,18.9c0,0.2,0,0.2-0.1,0.5v0L69.5,78.6
			c0,0.1-0.1,0.3-0.4,0.5c-0.2,0.2-0.4,0.3-1.5-0.1L49.2,64.8L38.1,75l2.3-15c0,0,28.9-27,30.2-28.1c1.2-1.2,0.8-1.4,0.8-1.4
			c0.1-1.4-1.9-0.4-1.9-0.4l-38,23.6l0-0.1l-18.2-6.1v0c0,0,0,0,0,0c0,0,0.1,0,0.1,0l0.1,0l0.1,0c0,0,16.3-6.9,32.8-13.8
			c8.3-3.5,16.6-7,23.1-9.7c6.4-2.7,11.2-4.7,11.4-4.8C81.1,18.9,81,18.9,81.2,18.9z"/>
	</g>
</g>
</svg>
